<?xml version="1.0" encoding="UTF-8" standalone="no"?>
<!-- Created with Inkscape (http://www.inkscape.org/) -->

<svg
   width="10"
   height="7"
   viewBox="0 0 2.6458333 1.8520835"
   version="1.1"
   id="svg5"
   inkscape:version="1.2.2 (732a01da63, 2022-12-09)"
   sodipodi:docname="thumbnail.svg"
   xml:space="preserve"
   xmlns:inkscape="http://www.inkscape.org/namespaces/inkscape"
   xmlns:sodipodi="http://sodipodi.sourceforge.net/DTD/sodipodi-0.dtd"
   xmlns="http://www.w3.org/2000/svg"
   xmlns:svg="http://www.w3.org/2000/svg"><sodipodi:namedview
     id="namedview7"
     pagecolor="#ffffff"
     bordercolor="#666666"
     borderopacity="1.0"
     inkscape:pageshadow="2"
     inkscape:pageopacity="0.0"
     inkscape:pagecheckerboard="0"
     inkscape:document-units="mm"
     showgrid="false"
     units="px"
     inkscape:zoom="47.436139"
     inkscape:cx="5.8499702"
     inkscape:cy="5.2702434"
     inkscape:window-width="1920"
     inkscape:window-height="1009"
     inkscape:window-x="-8"
     inkscape:window-y="-8"
     inkscape:window-maximized="1"
     inkscape:current-layer="layer1"
     width="10px"
     inkscape:showpageshadow="2"
     inkscape:deskcolor="#d1d1d1" /><defs
     id="defs2" /><g
     inkscape:label="Layer 1"
     inkscape:groupmode="layer"
     id="layer1"><rect
       style="opacity:1;fill:#ff4e00;fill-opacity:1;stroke:#000000;stroke-width:0.055938;stroke-dasharray:none"
       id="rect3298"
       width="0.70029527"
       height="0.30428055"
       x="0.068177871"
       y="0.08491087"
       rx="0.027759863"
       ry="0.034780473" /><rect
       style="fill:#ff4e00;fill-opacity:1;stroke:#000000;stroke-width:0.055938;stroke-dasharray:none"
       id="rect3298-8"
       width="0.70029527"
       height="0.30428055"
       x="0.50323659"
       y="0.56180209"
       rx="0.027759863"
       ry="0.034780473" /><rect
       style="fill:#ff4e00;fill-opacity:1;stroke:#000000;stroke-width:0.055938;stroke-dasharray:none"
       id="rect3298-80"
       width="0.70029527"
       height="0.30428055"
       x="0.95502812"
       y="0.082122065"
       rx="0.027759863"
       ry="0.034780473" /><rect
       style="fill:#ff4e00;fill-opacity:1;stroke:#000000;stroke-width:0.055938;stroke-dasharray:none"
       id="rect3298-4"
       width="0.70029527"
       height="0.30428055"
       x="1.8530337"
       y="0.087699726"
       rx="0.027759863"
       ry="0.034780473" /><rect
       style="fill:#ff4e00;fill-opacity:1;stroke:#000000;stroke-width:0.055938;stroke-dasharray:none"
       id="rect3298-0"
       width="0.70029527"
       height="0.30428055"
       x="0.0737556"
       y="0.99686062"
       rx="0.027759863"
       ry="0.034780473" /><rect
       style="fill:#ff4e00;fill-opacity:1;stroke:#000000;stroke-width:0.055938;stroke-dasharray:none"
       id="rect3298-93"
       width="0.70029527"
       height="0.30428055"
       x="0.97733879"
       y="1.0024383"
       rx="0.027759863"
       ry="0.034780473" /><rect
       style="fill:#ff4e00;fill-opacity:1;stroke:#000000;stroke-width:0.055938;stroke-dasharray:none"
       id="rect3298-02"
       width="0.70029527"
       height="0.30428055"
       x="0.54228026"
       y="1.4765406"
       rx="0.027759863"
       ry="0.034780473" /><rect
       style="fill:#ff4e00;fill-opacity:1;stroke:#000000;stroke-width:0.055938;stroke-dasharray:none"
       id="rect3298-7"
       width="0.70029527"
       height="0.30428055"
       x="2.2936702"
       y="0.56180203"
       rx="0.027759863"
       ry="0.034780473" /><rect
       style="fill:#ff4e00;fill-opacity:1;stroke:#000000;stroke-width:0.055938;stroke-dasharray:none"
       id="rect3298-1"
       width="0.70029527"
       height="0.30428055"
       x="-0.33341461"
       y="1.470963"
       rx="0.027759863"
       ry="0.034780473" /><rect
       style="fill:#ff4e00;fill-opacity:1;stroke:#000000;stroke-width:0.055938;stroke-dasharray:none"
       id="rect3298-35"
       width="0.70029527"
       height="0.30428055"
       x="2.3215585"
       y="1.4876961"
       rx="0.027759863"
       ry="0.034780473" /><rect
       style="fill:#ff4e00;fill-opacity:1;stroke:#000000;stroke-width:0.055938;stroke-dasharray:none"
       id="rect3298-5"
       width="0.70029527"
       height="0.30428055"
       x="1.451441"
       y="1.4876959"
       rx="0.027759863"
       ry="0.034780473" /><rect
       style="fill:#ff4e00;fill-opacity:1;stroke:#000000;stroke-width:0.055938;stroke-dasharray:none"
       id="rect3298-3"
       width="0.70029527"
       height="0.30428055"
       x="-0.37803599"
       y="0.55064666"
       rx="0.027759863"
       ry="0.034780473" /><rect
       style="fill:#ff4e00;fill-opacity:1;stroke:#000000;stroke-width:0.055938;stroke-dasharray:none"
       id="rect3298-2"
       width="0.70029527"
       height="0.30428055"
       x="1.8530338"
       y="0.99686062"
       rx="0.027759863"
       ry="0.034780473" /><rect
       style="fill:#ff4e00;fill-opacity:1;stroke:#000000;stroke-width:0.055938;stroke-dasharray:none"
       id="rect3298-9"
       width="0.70029527"
       height="0.30428055"
       x="1.401242"
       y="0.56180203"
       rx="0.027759863"
       ry="0.034780473" /><rect
       style="opacity:1;fill:#ff4e00;fill-opacity:1;stroke:#000000;stroke-width:0.121025;stroke-dasharray:none;stroke-opacity:1"
       id="rect4560"
       width="1.7245954"
       height="1.3062699"
       x="0.50423241"
       y="0.27554774"
       rx="0.024315139"
       ry="0.047083545" /><path
       d="M 1.6086933,0.66698793 1.3992663,0.45829331 c -0.014242,-0.014361 -0.037419,-0.0144552 -0.051779,-2.1228e-4 -7.3e-5,7.309e-5 -1.392e-4,1.3894e-4 -2.122e-4,2.1228e-4 L 1.1385809,0.66698793 H 0.93427988 c -0.0202173,0 -0.0366132,0.0163953 -0.0366132,0.0366132 V 1.3626371 c 0,0.020218 0.0163953,0.036613 0.0366132,0.036613 H 1.8129946 c 0.020218,0 0.036613,-0.016395 0.036613,-0.036613 V 0.70360111 c 0,-0.0202173 -0.016395,-0.0366132 -0.036613,-0.0366132 z M 1.3736372,0.53591306 1.5047121,0.66698793 H 1.2425623 Z M 1.7763814,1.3260239 H 0.97089279 V 0.74021434 H 1.7763814 Z M 1.1905718,0.95989301 c -0.040443,0 -0.073226,-0.0327834 -0.073226,-0.0732264 0,-0.0404427 0.032783,-0.0732261 0.073226,-0.0732261 0.040443,0 0.073226,0.0327834 0.073226,0.0732261 0,0.040443 -0.032783,0.0732264 -0.073226,0.0732264 z M 1.7031552,1.2527978 H 1.1539585 l 0.1098394,-0.2196787 0.091533,0.1830655 0.1647592,-0.329518 z"
       id="path1229"
       style="stroke-width:0.0732259" /></g></svg>
