<?xml version="1.0" encoding="UTF-8" standalone="no"?>
<!-- Created with Inkscape (http://www.inkscape.org/) -->

<svg
   width="10"
   height="7"
   viewBox="0 0 2.6458333 1.8520835"
   version="1.1"
   id="svg5"
   inkscape:version="1.2.2 (732a01da63, 2022-12-09)"
   sodipodi:docname="thumbnail.svg"
   xml:space="preserve"
   xmlns:inkscape="http://www.inkscape.org/namespaces/inkscape"
   xmlns:sodipodi="http://sodipodi.sourceforge.net/DTD/sodipodi-0.dtd"
   xmlns="http://www.w3.org/2000/svg"
   xmlns:svg="http://www.w3.org/2000/svg"><sodipodi:namedview
     id="namedview7"
     pagecolor="#ffffff"
     bordercolor="#666666"
     borderopacity="1.0"
     inkscape:pageshadow="2"
     inkscape:pageopacity="0.0"
     inkscape:pagecheckerboard="0"
     inkscape:document-units="mm"
     showgrid="false"
     units="px"
     inkscape:zoom="33.542416"
     inkscape:cx="7.6470342"
     inkscape:cy="2.8918609"
     inkscape:window-width="1920"
     inkscape:window-height="1009"
     inkscape:window-x="-8"
     inkscape:window-y="-8"
     inkscape:window-maximized="1"
     inkscape:current-layer="layer1"
     width="10px"
     inkscape:showpageshadow="2"
     inkscape:deskcolor="#d1d1d1" /><defs
     id="defs2" /><g
     inkscape:label="Layer 1"
     inkscape:groupmode="layer"
     id="layer1"><rect
       style="opacity:1;fill:#ff4e00;fill-opacity:1;stroke:#000000;stroke-width:0.055938;stroke-dasharray:none"
       id="rect3298"
       width="0.70029527"
       height="0.30428055"
       x="0.068177871"
       y="0.08491087"
       rx="0.027759863"
       ry="0.034780473" /><rect
       style="fill:#ff4e00;fill-opacity:1;stroke:#000000;stroke-width:0.055938;stroke-dasharray:none"
       id="rect3298-8"
       width="0.70029527"
       height="0.30428055"
       x="0.50323659"
       y="0.56180209"
       rx="0.027759863"
       ry="0.034780473" /><rect
       style="fill:#ff4e00;fill-opacity:1;stroke:#000000;stroke-width:0.055938;stroke-dasharray:none"
       id="rect3298-80"
       width="0.70029527"
       height="0.30428055"
       x="0.95502812"
       y="0.082122065"
       rx="0.027759863"
       ry="0.034780473" /><rect
       style="fill:#ff4e00;fill-opacity:1;stroke:#000000;stroke-width:0.055938;stroke-dasharray:none"
       id="rect3298-4"
       width="0.70029527"
       height="0.30428055"
       x="1.8530337"
       y="0.087699726"
       rx="0.027759863"
       ry="0.034780473" /><rect
       style="fill:#ff4e00;fill-opacity:1;stroke:#000000;stroke-width:0.055938;stroke-dasharray:none"
       id="rect3298-0"
       width="0.70029527"
       height="0.30428055"
       x="0.0737556"
       y="0.99686062"
       rx="0.027759863"
       ry="0.034780473" /><rect
       style="fill:#ff4e00;fill-opacity:1;stroke:#000000;stroke-width:0.055938;stroke-dasharray:none"
       id="rect3298-93"
       width="0.70029527"
       height="0.30428055"
       x="0.97733879"
       y="1.0024383"
       rx="0.027759863"
       ry="0.034780473" /><rect
       style="fill:#ff4e00;fill-opacity:1;stroke:#000000;stroke-width:0.055938;stroke-dasharray:none"
       id="rect3298-02"
       width="0.70029527"
       height="0.30428055"
       x="0.54228026"
       y="1.4765406"
       rx="0.027759863"
       ry="0.034780473" /><rect
       style="fill:#ff4e00;fill-opacity:1;stroke:#000000;stroke-width:0.055938;stroke-dasharray:none"
       id="rect3298-7"
       width="0.70029527"
       height="0.30428055"
       x="2.2936702"
       y="0.56180203"
       rx="0.027759863"
       ry="0.034780473" /><rect
       style="fill:#ff4e00;fill-opacity:1;stroke:#000000;stroke-width:0.055938;stroke-dasharray:none"
       id="rect3298-1"
       width="0.70029527"
       height="0.30428055"
       x="-0.33341461"
       y="1.470963"
       rx="0.027759863"
       ry="0.034780473" /><rect
       style="fill:#ff4e00;fill-opacity:1;stroke:#000000;stroke-width:0.055938;stroke-dasharray:none"
       id="rect3298-35"
       width="0.70029527"
       height="0.30428055"
       x="2.3215585"
       y="1.4876961"
       rx="0.027759863"
       ry="0.034780473" /><rect
       style="fill:#ff4e00;fill-opacity:1;stroke:#000000;stroke-width:0.055938;stroke-dasharray:none"
       id="rect3298-5"
       width="0.70029527"
       height="0.30428055"
       x="1.451441"
       y="1.4876959"
       rx="0.027759863"
       ry="0.034780473" /><rect
       style="fill:#ff4e00;fill-opacity:1;stroke:#000000;stroke-width:0.055938;stroke-dasharray:none"
       id="rect3298-3"
       width="0.70029527"
       height="0.30428055"
       x="-0.37803599"
       y="0.55064666"
       rx="0.027759863"
       ry="0.034780473" /><rect
       style="fill:#ff4e00;fill-opacity:1;stroke:#000000;stroke-width:0.055938;stroke-dasharray:none"
       id="rect3298-2"
       width="0.70029527"
       height="0.30428055"
       x="1.8530338"
       y="0.99686062"
       rx="0.027759863"
       ry="0.034780473" /><rect
       style="fill:#ff4e00;fill-opacity:1;stroke:#000000;stroke-width:0.055938;stroke-dasharray:none"
       id="rect3298-9"
       width="0.70029527"
       height="0.30428055"
       x="1.401242"
       y="0.56180203"
       rx="0.027759863"
       ry="0.034780473" /><rect
       style="opacity:1;fill:#ff4e00;fill-opacity:1;stroke:#000000;stroke-width:0.121025;stroke-dasharray:none;stroke-opacity:1"
       id="rect4560"
       width="1.7245954"
       height="1.3062699"
       x="0.50423241"
       y="0.27554774"
       rx="0.024315139"
       ry="0.047083545" /><g
       id="g2990"
       transform="matrix(0.00498629,0,0,0.00498629,1.3712773,0.91929698)"><g
         id="g2992"><path
           id="path2994"
           style="fill:none;stroke:#000000"
           d="M 6.0421,0 A 6.0421,100 0 1 1 -6.0419,0 6.0421,100 0 1 1 6.0421,0 Z"
           transform="rotate(2.0024)" /><path
           id="path2996"
           style="fill:none;stroke:#000000"
           d="M 48.429,0 A 48.429,100 0 1 1 -48.429,0 48.429,100 0 1 1 48.429,0 Z"
           transform="matrix(0.94756,0.31957,-0.31957,0.94756,0,0)" /><path
           id="path2998"
           style="fill:none;stroke:#000000"
           d="M 77.839,0 A 77.84,100.00128 0 1 1 -77.841,0 77.84,100.00128 0 1 1 77.839,0 Z"
           transform="matrix(0.69827,0.71583,-0.71583,0.69827,0,0)" /><path
           id="path3000"
           style="fill:none;stroke:#000000"
           d="M 86.393,0 A 86.395,100.00232 0 1 1 -86.397,0 86.395,100.00232 0 1 1 86.393,0 Z"
           transform="rotate(-82.038)" /><path
           id="path3002"
           style="fill:none;stroke:#000000"
           d="m 71.798,0 a 71.8,100.00279 0 1 1 -143.6,0 71.8,100.00279 0 1 1 143.6,0 z"
           transform="rotate(-36.549)" /><path
           id="path3004"
           style="fill:none;stroke:#000000"
           d="m 37.965,0 a 37.965,100 0 1 1 -75.93,0 37.965,100 0 1 1 75.93,0 z"
           transform="rotate(-13.705)" /></g><g
         id="g3006"><path
           id="path3008"
           style="fill:none;stroke:#000000"
           d="m 23.932,84.086 a 23.932,11.967 0 1 1 -47.863,0 23.932,11.967 0 1 1 47.863,0 z" /><path
           id="path3010"
           style="fill:none;stroke:#000000"
           d="m 46.472,76.683 a 46.4725,23.23725 0 1 1 -92.945,0 46.4725,23.23725 0 1 1 92.945,0 z" /><path
           id="path3012"
           style="fill:none;stroke:#000000"
           d="m 66.312,64.823 a 66.312,33.157 0 1 1 -132.62,0 66.312,33.157 0 1 1 132.62,0 z" /><path
           id="path3014"
           style="fill:none;stroke:#000000"
           d="m 82.298,49.196 a 82.3,41.151 0 1 1 -164.6,0 82.3,41.151 0 1 1 164.6,0 z" /><path
           id="path3016"
           style="fill:none;stroke:#000000"
           d="m 93.502,30.71 a 93.502,46.752 0 1 1 -187,0 93.502,46.752 0 1 1 187,0 z" /><path
           id="path3018"
           style="fill:none;stroke:#000000"
           d="m 99.271,10.439 a 99.271,49.636 0 1 1 -198.54,0 99.271,49.636 0 1 1 198.54,0 z" /><path
           id="path3020"
           style="fill:none;stroke:#000000"
           d="m 99.271,-10.439 a 99.271,49.636 0 1 1 -198.54,0 99.271,49.636 0 1 1 198.54,0 z" /><path
           id="path3022"
           style="fill:none;stroke:#000000"
           d="m 93.502,-30.71 a 93.502,46.752 0 1 1 -187,0 93.502,46.752 0 1 1 187,0 z" /><path
           id="path3024"
           style="fill:none;stroke:#000000"
           d="m 82.298,-49.196 a 82.3,41.151 0 1 1 -164.6,0 82.3,41.151 0 1 1 164.6,0 z" /><path
           id="path3026"
           style="fill:none;stroke:#000000"
           d="m 66.312,-64.823 a 66.312,33.157 0 1 1 -132.62,0 66.312,33.157 0 1 1 132.62,0 z" /><path
           id="path3028"
           style="fill:none;stroke:#000000"
           d="m 46.472,-76.683 a 46.4725,23.23725 0 1 1 -92.945,0 46.4725,23.23725 0 1 1 92.945,0 z" /><path
           id="path3030"
           style="fill:none;stroke:#000000"
           d="m 23.932,-84.086 a 23.932,11.967 0 1 1 -47.863,0 23.932,11.967 0 1 1 47.863,0 z" /></g><path
         id="path3032"
         style="fill:none;stroke:#000000"
         d="M 100,0 A 100,100 0 1 1 -100,0 100,100 0 1 1 100,0 Z" /></g></g></svg>
