<?xml version="1.0" encoding="UTF-8" standalone="no"?>
<!-- Created with Inkscape (http://www.inkscape.org/) -->

<svg
   width="10"
   height="7"
   viewBox="0 0 2.6458333 1.8520835"
   version="1.1"
   id="svg5"
   inkscape:version="1.2.2 (732a01da63, 2022-12-09)"
   sodipodi:docname="thumbnail.svg"
   xml:space="preserve"
   xmlns:inkscape="http://www.inkscape.org/namespaces/inkscape"
   xmlns:sodipodi="http://sodipodi.sourceforge.net/DTD/sodipodi-0.dtd"
   xmlns="http://www.w3.org/2000/svg"
   xmlns:svg="http://www.w3.org/2000/svg"><sodipodi:namedview
     id="namedview7"
     pagecolor="#ffffff"
     bordercolor="#666666"
     borderopacity="1.0"
     inkscape:pageshadow="2"
     inkscape:pageopacity="0.0"
     inkscape:pagecheckerboard="0"
     inkscape:document-units="mm"
     showgrid="false"
     units="px"
     inkscape:zoom="33.542416"
     inkscape:cx="5.3216203"
     inkscape:cy="2.0869099"
     inkscape:window-width="1920"
     inkscape:window-height="1009"
     inkscape:window-x="-8"
     inkscape:window-y="-8"
     inkscape:window-maximized="1"
     inkscape:current-layer="layer1"
     width="10px"
     inkscape:showpageshadow="2"
     inkscape:deskcolor="#d1d1d1" /><defs
     id="defs2" /><g
     inkscape:label="Layer 1"
     inkscape:groupmode="layer"
     id="layer1"><rect
       style="opacity:1;fill:#ff4e00;fill-opacity:1;stroke:#000000;stroke-width:0.055938;stroke-dasharray:none"
       id="rect3298"
       width="0.70029527"
       height="0.30428055"
       x="0.068177871"
       y="0.08491087"
       rx="0.027759863"
       ry="0.034780473" /><rect
       style="fill:#ff4e00;fill-opacity:1;stroke:#000000;stroke-width:0.055938;stroke-dasharray:none"
       id="rect3298-8"
       width="0.70029527"
       height="0.30428055"
       x="0.50323659"
       y="0.56180209"
       rx="0.027759863"
       ry="0.034780473" /><rect
       style="fill:#ff4e00;fill-opacity:1;stroke:#000000;stroke-width:0.055938;stroke-dasharray:none"
       id="rect3298-80"
       width="0.70029527"
       height="0.30428055"
       x="0.95502812"
       y="0.082122065"
       rx="0.027759863"
       ry="0.034780473" /><rect
       style="fill:#ff4e00;fill-opacity:1;stroke:#000000;stroke-width:0.055938;stroke-dasharray:none"
       id="rect3298-4"
       width="0.70029527"
       height="0.30428055"
       x="1.8530337"
       y="0.087699726"
       rx="0.027759863"
       ry="0.034780473" /><rect
       style="fill:#ff4e00;fill-opacity:1;stroke:#000000;stroke-width:0.055938;stroke-dasharray:none"
       id="rect3298-0"
       width="0.70029527"
       height="0.30428055"
       x="0.0737556"
       y="0.99686062"
       rx="0.027759863"
       ry="0.034780473" /><rect
       style="fill:#ff4e00;fill-opacity:1;stroke:#000000;stroke-width:0.055938;stroke-dasharray:none"
       id="rect3298-93"
       width="0.70029527"
       height="0.30428055"
       x="0.97733879"
       y="1.0024383"
       rx="0.027759863"
       ry="0.034780473" /><rect
       style="fill:#ff4e00;fill-opacity:1;stroke:#000000;stroke-width:0.055938;stroke-dasharray:none"
       id="rect3298-02"
       width="0.70029527"
       height="0.30428055"
       x="0.54228026"
       y="1.4765406"
       rx="0.027759863"
       ry="0.034780473" /><rect
       style="fill:#ff4e00;fill-opacity:1;stroke:#000000;stroke-width:0.055938;stroke-dasharray:none"
       id="rect3298-7"
       width="0.70029527"
       height="0.30428055"
       x="2.2936702"
       y="0.56180203"
       rx="0.027759863"
       ry="0.034780473" /><rect
       style="fill:#ff4e00;fill-opacity:1;stroke:#000000;stroke-width:0.055938;stroke-dasharray:none"
       id="rect3298-1"
       width="0.70029527"
       height="0.30428055"
       x="-0.33341461"
       y="1.470963"
       rx="0.027759863"
       ry="0.034780473" /><rect
       style="fill:#ff4e00;fill-opacity:1;stroke:#000000;stroke-width:0.055938;stroke-dasharray:none"
       id="rect3298-35"
       width="0.70029527"
       height="0.30428055"
       x="2.3215585"
       y="1.4876961"
       rx="0.027759863"
       ry="0.034780473" /><rect
       style="fill:#ff4e00;fill-opacity:1;stroke:#000000;stroke-width:0.055938;stroke-dasharray:none"
       id="rect3298-5"
       width="0.70029527"
       height="0.30428055"
       x="1.451441"
       y="1.4876959"
       rx="0.027759863"
       ry="0.034780473" /><rect
       style="fill:#ff4e00;fill-opacity:1;stroke:#000000;stroke-width:0.055938;stroke-dasharray:none"
       id="rect3298-3"
       width="0.70029527"
       height="0.30428055"
       x="-0.37803599"
       y="0.55064666"
       rx="0.027759863"
       ry="0.034780473" /><rect
       style="fill:#ff4e00;fill-opacity:1;stroke:#000000;stroke-width:0.055938;stroke-dasharray:none"
       id="rect3298-2"
       width="0.70029527"
       height="0.30428055"
       x="1.8530338"
       y="0.99686062"
       rx="0.027759863"
       ry="0.034780473" /><rect
       style="fill:#ff4e00;fill-opacity:1;stroke:#000000;stroke-width:0.055938;stroke-dasharray:none"
       id="rect3298-9"
       width="0.70029527"
       height="0.30428055"
       x="1.401242"
       y="0.56180203"
       rx="0.027759863"
       ry="0.034780473" /><rect
       style="opacity:1;fill:#ff4e00;fill-opacity:1;stroke:#000000;stroke-width:0.121025;stroke-dasharray:none;stroke-opacity:1"
       id="rect4560"
       width="1.7245954"
       height="1.3062699"
       x="0.50423241"
       y="0.27554774"
       rx="0.024315139"
       ry="0.047083545" /><g
       id="g1249"
       transform="matrix(5.3360372e-4,0,0,5.3360372e-4,1.0404827,0.47665169)">
	<path
   d="m 626.407,50.022 c -7.193,-0.778 -14.386,-0.539 -21.585,-0.225 -7.199,-0.314 -14.392,-0.553 -21.585,0.225 -331.359,5.401 -548.526,303.484 -505.202,600.403 23.893,167.215 115.647,257.266 171.46,316.006 120.016,126.058 98.977,162.49 139.248,225.625 -21.847,28.048 -24.026,71.245 -1.648,99.612 -17.364,28.58 -17.665,68.765 4.713,94.775 -20.476,31.982 -18.608,77.175 8.345,100.906 -5.833,37.263 21.687,100.389 96.352,99.134 1.835,7.057 2.615,35.574 28.544,52.411 22.791,15.301 33.22,8.487 120.829,10.596 13.537,0.213 27.393,-2.995 38.715,-10.596 25.906,-16.821 26.712,-45.365 28.544,-52.411 69.851,1.174 102.81,-57.885 96.352,-99.134 27.183,-23.933 28.625,-69.231 8.345,-100.906 22.378,-26.01 22.077,-66.196 4.713,-94.775 22.378,-28.367 20.199,-71.564 -1.648,-99.612 18.569,-29.111 27.339,-62.953 42.134,-93.907 40.361,-89.323 118.845,-144.285 175.146,-219.92 C 1278.898,552.106 1058.01,57.057 626.407,50.022 Z"
   id="path1241" />
	<g
   id="g1247">
		<path
   class="st0"
   d="m 524.2,322.601 c 48.714,52.887 44.272,124.135 -12.19,172.027 46.6,39.059 62.963,107.336 29.43,160.439 -21.599,-8.771 -47.219,-9.905 -68.41,0.62 -15.397,-10.737 -34.816,-15.521 -53.314,-11.269 -14.058,-51.802 -57.926,-76.267 -110.562,-64.442 0,-12.952 -2.87,-25.904 -9.444,-37.155 20.766,-1.914 41.142,-10.418 55.99,-25.249 21.952,26.53 58.082,34.106 89.726,13.891 8.221,17.169 22.396,31.539 40.132,38.803 2.906,-7.194 5.723,-14.405 8.717,-21.545 -36.456,-15.635 -47.837,-72.308 -8.523,-99.453 -4.43,-6.414 -8.806,-12.863 -13.236,-19.26 -24.93,16.638 -38.218,47.839 -33.984,77.394 -24.695,20.091 -53.098,13.835 -68.269,-9.143 7.335,-14.263 9.798,-31.113 5.262,-46.617 33.944,-20.88 37.112,-62.047 22.485,-93.251 47.074,-1.22 78.651,-30.766 80.175,-77.022 22.378,-7.016 40.061,-26.241 45.111,-49.168 -7.389,-1.931 -14.813,-3.703 -22.307,-5.191 -9.078,40.401 -58.74,44.695 -86.395,13.129 -5.971,5.014 -11.747,10.223 -17.488,15.468 14.635,16.726 35.472,28.19 57.903,29.271 -12.072,102.836 -178.404,29.849 -144.847,-52.677 9.459,-25.101 38.855,-44.549 72.096,-30.794 C 493.056,37.494 609.684,207.751 524.2,322.601 Z M 286.208,279.616 c 15.991,41.547 43.497,61.444 79.91,74.452 32.534,25.859 18.474,85.043 -26.028,83.081 25.214,28.823 16.994,54.331 -9.639,70.395 -57.774,33.943 -73.298,-18.663 -141.941,17.311 -43.266,-51.995 2.963,-129.5 66.887,-128.263 C 221.842,360.836 220.778,286.18 286.208,279.616 Z M 278.695,614.9 c 56.62,-24.962 104.915,-20.123 119.634,39.707 -17.346,12.793 -26.79,34.834 -23.867,56.22 -62.888,42.087 -43.474,132.334 37.988,140.542 4.057,29.944 26.453,54.98 54.253,65.629 3.154,-7.087 5.599,-14.44 8.434,-21.634 -50.724,-20.729 -57.526,-88.132 2.959,-104.308 -1.719,-7.53 -3.366,-15.078 -5.05,-22.609 -29.82,6.607 -52.852,26.297 -60.313,59.48 -64.036,-8.064 -70.705,-74.236 -11.535,-105.141 -14.002,-59.62 33.091,-71.614 70.324,-36.783 66.736,-56.035 146.207,56.851 67.755,140.435 C 631.752,926.482 527.655,1049.41 438.885,958.705 371.144,986 329.921,946.726 339.042,877.803 268.232,898.034 224.863,842.089 245.737,772.379 179.625,751.568 155.158,693.133 158.173,629.144 167.241,497.084 324.8,511.164 278.695,614.9 Z"
   id="path1243" />
		<path
   class="st0"
   d="m 827.386,201.408 c 33.147,-13.716 62.603,5.603 72.096,30.794 33.577,82.577 -132.791,155.377 -144.847,52.677 22.431,-1.081 43.268,-12.545 57.903,-29.271 -5.741,-5.245 -11.517,-10.454 -17.488,-15.468 -27.647,31.557 -77.315,27.28 -86.395,-13.129 -7.495,1.488 -14.919,3.26 -22.307,5.191 5.05,22.928 22.733,42.152 45.111,49.168 1.524,46.257 33.105,75.801 80.175,77.022 -14.488,30.908 -11.75,72.193 22.485,93.251 -4.536,15.504 -2.073,32.354 5.262,46.617 -15.126,22.91 -43.508,29.288 -68.269,9.143 4.235,-29.554 -9.054,-60.756 -33.984,-77.394 -4.43,6.396 -8.806,12.846 -13.236,19.26 39.299,27.134 27.947,83.812 -8.523,99.453 2.994,7.141 5.812,14.352 8.717,21.545 17.736,-7.265 31.911,-21.634 40.132,-38.803 31.218,19.942 67.449,13.031 89.726,-13.891 14.848,14.83 35.224,23.335 55.99,25.249 -6.573,11.251 -9.444,24.203 -9.444,37.155 -52.583,-11.813 -96.491,12.589 -110.562,64.442 -18.498,-4.252 -37.917,0.532 -53.314,11.269 -21.191,-10.525 -46.812,-9.391 -68.41,-0.62 -33.571,-53.164 -17.113,-121.428 29.43,-160.439 -56.477,-47.905 -60.891,-119.154 -12.19,-172.027 -75.922,-102.004 5.287,-223.719 84.02,-180.337 24.594,13.624 42.437,36.233 57.922,59.143 z M 954.25,396.593 c 63.903,-1.237 110.171,76.246 66.887,128.263 -15.694,-8.225 -37.67,-20.541 -78.882,-8.363 -46.737,13.978 -119.009,-26.402 -72.698,-79.343 -44.501,1.961 -58.568,-57.218 -26.028,-83.081 35.043,-12.519 63.386,-31.523 79.91,-74.452 64.775,6.497 64.734,80.825 30.811,116.976 z m 9.656,375.788 c 20.839,69.591 -22.337,125.7 -93.305,105.424 9.123,68.938 -32.481,108.044 -99.843,80.902 -89.352,91.299 -192.353,-32.78 -100.392,-132.267 -78.548,-83.687 0.915,-196.557 67.755,-140.435 36.775,-34.403 84.439,-23.315 70.324,36.783 58.943,30.786 52.747,97.046 -11.535,105.141 -7.412,-32.964 -30.243,-52.818 -60.313,-59.48 -1.683,7.53 -3.331,15.078 -5.05,22.609 60.391,16.15 53.744,83.554 2.959,104.308 2.835,7.194 5.28,14.547 8.434,21.634 27.8,-10.649 50.196,-35.685 54.253,-65.629 81.536,-8.215 100.853,-98.471 37.988,-140.542 2.924,-21.386 -6.52,-43.428 -23.867,-56.22 14.762,-60.007 63.078,-64.641 119.634,-39.707 -37.249,-83.81 51.987,-98.654 90.062,-61.323 48.087,46.071 48.526,185.552 -57.104,218.802 z"
   id="path1245" />
	</g>
</g></g><style
     type="text/css"
     id="style1239">
	.st0{fill:#FFFFFF;}
</style></svg>
