<?xml version="1.0" encoding="UTF-8" standalone="no"?>
<!-- Created with Inkscape (http://www.inkscape.org/) -->

<svg
   width="10"
   height="7"
   viewBox="0 0 2.6458333 1.8520835"
   version="1.1"
   id="svg5"
   inkscape:version="1.2.2 (732a01da63, 2022-12-09)"
   sodipodi:docname="thumbnail.svg"
   xml:space="preserve"
   xmlns:inkscape="http://www.inkscape.org/namespaces/inkscape"
   xmlns:sodipodi="http://sodipodi.sourceforge.net/DTD/sodipodi-0.dtd"
   xmlns="http://www.w3.org/2000/svg"
   xmlns:svg="http://www.w3.org/2000/svg"><sodipodi:namedview
     id="namedview7"
     pagecolor="#ffffff"
     bordercolor="#666666"
     borderopacity="1.0"
     inkscape:pageshadow="2"
     inkscape:pageopacity="0.0"
     inkscape:pagecheckerboard="0"
     inkscape:document-units="mm"
     showgrid="false"
     units="px"
     inkscape:zoom="67.084831"
     inkscape:cx="5.910427"
     inkscape:cy="3.8309704"
     inkscape:window-width="1920"
     inkscape:window-height="1009"
     inkscape:window-x="-8"
     inkscape:window-y="-8"
     inkscape:window-maximized="1"
     inkscape:current-layer="layer1"
     width="10px"
     inkscape:showpageshadow="2"
     inkscape:deskcolor="#d1d1d1" /><defs
     id="defs2" /><g
     inkscape:label="Layer 1"
     inkscape:groupmode="layer"
     id="layer1"><rect
       style="opacity:1;fill:#ff4e00;fill-opacity:1;stroke:#000000;stroke-width:0.055938;stroke-dasharray:none"
       id="rect3298"
       width="0.70029527"
       height="0.30428055"
       x="0.068177871"
       y="0.08491087"
       rx="0.027759863"
       ry="0.034780473" /><rect
       style="fill:#ff4e00;fill-opacity:1;stroke:#000000;stroke-width:0.055938;stroke-dasharray:none"
       id="rect3298-8"
       width="0.70029527"
       height="0.30428055"
       x="0.50323659"
       y="0.56180209"
       rx="0.027759863"
       ry="0.034780473" /><rect
       style="fill:#ff4e00;fill-opacity:1;stroke:#000000;stroke-width:0.055938;stroke-dasharray:none"
       id="rect3298-80"
       width="0.70029527"
       height="0.30428055"
       x="0.95502812"
       y="0.082122065"
       rx="0.027759863"
       ry="0.034780473" /><rect
       style="fill:#ff4e00;fill-opacity:1;stroke:#000000;stroke-width:0.055938;stroke-dasharray:none"
       id="rect3298-4"
       width="0.70029527"
       height="0.30428055"
       x="1.8530337"
       y="0.087699726"
       rx="0.027759863"
       ry="0.034780473" /><rect
       style="fill:#ff4e00;fill-opacity:1;stroke:#000000;stroke-width:0.055938;stroke-dasharray:none"
       id="rect3298-0"
       width="0.70029527"
       height="0.30428055"
       x="0.0737556"
       y="0.99686062"
       rx="0.027759863"
       ry="0.034780473" /><rect
       style="fill:#ff4e00;fill-opacity:1;stroke:#000000;stroke-width:0.055938;stroke-dasharray:none"
       id="rect3298-93"
       width="0.70029527"
       height="0.30428055"
       x="0.97733879"
       y="1.0024383"
       rx="0.027759863"
       ry="0.034780473" /><rect
       style="fill:#ff4e00;fill-opacity:1;stroke:#000000;stroke-width:0.055938;stroke-dasharray:none"
       id="rect3298-02"
       width="0.70029527"
       height="0.30428055"
       x="0.54228026"
       y="1.4765406"
       rx="0.027759863"
       ry="0.034780473" /><rect
       style="fill:#ff4e00;fill-opacity:1;stroke:#000000;stroke-width:0.055938;stroke-dasharray:none"
       id="rect3298-7"
       width="0.70029527"
       height="0.30428055"
       x="2.2936702"
       y="0.56180203"
       rx="0.027759863"
       ry="0.034780473" /><rect
       style="fill:#ff4e00;fill-opacity:1;stroke:#000000;stroke-width:0.055938;stroke-dasharray:none"
       id="rect3298-1"
       width="0.70029527"
       height="0.30428055"
       x="-0.33341461"
       y="1.470963"
       rx="0.027759863"
       ry="0.034780473" /><rect
       style="fill:#ff4e00;fill-opacity:1;stroke:#000000;stroke-width:0.055938;stroke-dasharray:none"
       id="rect3298-35"
       width="0.70029527"
       height="0.30428055"
       x="2.3215585"
       y="1.4876961"
       rx="0.027759863"
       ry="0.034780473" /><rect
       style="fill:#ff4e00;fill-opacity:1;stroke:#000000;stroke-width:0.055938;stroke-dasharray:none"
       id="rect3298-5"
       width="0.70029527"
       height="0.30428055"
       x="1.451441"
       y="1.4876959"
       rx="0.027759863"
       ry="0.034780473" /><rect
       style="fill:#ff4e00;fill-opacity:1;stroke:#000000;stroke-width:0.055938;stroke-dasharray:none"
       id="rect3298-3"
       width="0.70029527"
       height="0.30428055"
       x="-0.37803599"
       y="0.55064666"
       rx="0.027759863"
       ry="0.034780473" /><rect
       style="fill:#ff4e00;fill-opacity:1;stroke:#000000;stroke-width:0.055938;stroke-dasharray:none"
       id="rect3298-2"
       width="0.70029527"
       height="0.30428055"
       x="1.8530338"
       y="0.99686062"
       rx="0.027759863"
       ry="0.034780473" /><rect
       style="fill:#ff4e00;fill-opacity:1;stroke:#000000;stroke-width:0.055938;stroke-dasharray:none"
       id="rect3298-9"
       width="0.70029527"
       height="0.30428055"
       x="1.401242"
       y="0.56180203"
       rx="0.027759863"
       ry="0.034780473" /><rect
       style="opacity:1;fill:#ff4e00;fill-opacity:1;stroke:#000000;stroke-width:0.121025;stroke-dasharray:none;stroke-opacity:1"
       id="rect4560"
       width="1.7245954"
       height="1.3062699"
       x="0.50423241"
       y="0.27554774"
       rx="0.024315139"
       ry="0.047083545" /><g
       id="layer1-0"
       transform="matrix(0.02053274,0,0,0.02053274,0.88376224,0.4493308)"><path
         id="path3201"
         d="m 128.52,250.93 a 21.3765,19.746462 0 1 1 -42.753,0 21.3765,19.746462 0 1 1 42.753,0 z"
         transform="translate(-82.482,-226.47)"
         stroke="#000000"
         stroke-width="2.25"
         fill="none" /><path
         id="rect3223"
         d="m 15.974,12.273 c -3.0333,0 -5.5,2.2388 -5.5,4.9688 0,2.7299 2.4667,4.9375 5.5,4.9375 3.0333,0 5.5,-2.2076 5.5,-4.9375 0,-2.7299 -2.4667,-4.9688 -5.5,-4.9688 z m 12.812,0 c -3.0333,0 -5.5,2.2388 -5.5,4.9688 0,2.7299 2.4667,4.9375 5.5,4.9375 3.0333,0 5.5,-2.2076 5.5,-4.9375 0,-2.7299 -2.4667,-4.9688 -5.5,-4.9688 z m -14.5,10.438 c -0.49304,0 -0.875,0.41321 -0.875,0.90625 v 12.125 c 0,0.49304 0.38196,0.90625 0.875,0.90625 h 17.281 c 0.49304,0 0.875,-0.41321 0.875,-0.90625 v -12.125 c 0,-0.49304 -0.38196,-0.90625 -0.875,-0.90625 z m 19.406,4.0312 c -0.49304,0 -0.875,0.41321 -0.875,0.90625 v 4.625 c 0,0.49304 0.38196,0.875 0.875,0.875 h 4.2812 c 0.49304,0 0.875,-0.38196 0.875,-0.875 v -4.625 c 0,-0.49304 -0.38196,-0.90625 -0.875,-0.90625 z" /></g></g></svg>
